<svg xmlns="http://www.w3.org/2000/svg">
  <symbol id="home" viewBox="0 0 24 24">
    <path d="M3 10.8 12 3l9 7.8" fill="none" stroke="currentColor" stroke-width="2" stroke-linecap="round" stroke-linejoin="round"/>
    <path d="M5 10v10h5v-6h4v6h5V10" fill="none" stroke="currentColor" stroke-width="2" stroke-linecap="round" stroke-linejoin="round"/>
  </symbol>
  <symbol id="dashboard" viewBox="0 0 24 24">
    <rect x="3" y="3" width="7" height="8" rx="1.5" fill="none" stroke="currentColor" stroke-width="2"/>
    <rect x="14" y="3" width="7" height="5" rx="1.5" fill="none" stroke="currentColor" stroke-width="2"/>
    <rect x="14" y="12" width="7" height="9" rx="1.5" fill="none" stroke="currentColor" stroke-width="2"/>
    <rect x="3" y="15" width="7" height="6" rx="1.5" fill="none" stroke="currentColor" stroke-width="2"/>
  </symbol>
  <symbol id="user" viewBox="0 0 24 24">
    <circle cx="12" cy="8" r="4" fill="none" stroke="currentColor" stroke-width="2"/>
    <path d="M4 21a8 8 0 0 1 16 0" fill="none" stroke="currentColor" stroke-width="2" stroke-linecap="round"/>
  </symbol>
  <symbol id="users" viewBox="0 0 24 24">
    <circle cx="9" cy="8" r="4" fill="none" stroke="currentColor" stroke-width="2"/>
    <path d="M2.5 21a6.8 6.8 0 0 1 13 0" fill="none" stroke="currentColor" stroke-width="2" stroke-linecap="round"/>
    <path d="M16 5.4a3.5 3.5 0 0 1 0 5.2M17.5 15.2A6.5 6.5 0 0 1 22 21" fill="none" stroke="currentColor" stroke-width="2" stroke-linecap="round"/>
  </symbol>
  <symbol id="user-plus" viewBox="0 0 24 24">
    <circle cx="9" cy="8" r="4" fill="none" stroke="currentColor" stroke-width="2"/>
    <path d="M2.5 21a6.8 6.8 0 0 1 13 0M19 8v8M15 12h8" fill="none" stroke="currentColor" stroke-width="2" stroke-linecap="round"/>
  </symbol>
  <symbol id="login" viewBox="0 0 24 24">
    <path d="M10 17l5-5-5-5M15 12H3" fill="none" stroke="currentColor" stroke-width="2" stroke-linecap="round" stroke-linejoin="round"/>
    <path d="M14 4h4a3 3 0 0 1 3 3v10a3 3 0 0 1-3 3h-4" fill="none" stroke="currentColor" stroke-width="2" stroke-linecap="round"/>
  </symbol>
  <symbol id="logout" viewBox="0 0 24 24">
    <path d="M14 17l5-5-5-5M19 12H8" fill="none" stroke="currentColor" stroke-width="2" stroke-linecap="round" stroke-linejoin="round"/>
    <path d="M10 4H6a3 3 0 0 0-3 3v10a3 3 0 0 0 3 3h4" fill="none" stroke="currentColor" stroke-width="2" stroke-linecap="round"/>
  </symbol>
  <symbol id="lock" viewBox="0 0 24 24">
    <rect x="4" y="10" width="16" height="11" rx="2" fill="none" stroke="currentColor" stroke-width="2"/>
    <path d="M8 10V7a4 4 0 0 1 8 0v3" fill="none" stroke="currentColor" stroke-width="2" stroke-linecap="round"/>
  </symbol>
  <symbol id="unlock" viewBox="0 0 24 24">
    <rect x="4" y="10" width="16" height="11" rx="2" fill="none" stroke="currentColor" stroke-width="2"/>
    <path d="M8 10V7a4 4 0 0 1 7.3-2.2" fill="none" stroke="currentColor" stroke-width="2" stroke-linecap="round"/>
  </symbol>
  <symbol id="key" viewBox="0 0 24 24">
    <circle cx="8" cy="15" r="4" fill="none" stroke="currentColor" stroke-width="2"/>
    <path d="M11 12 21 2M17 6l3 3M14 9l2 2" fill="none" stroke="currentColor" stroke-width="2" stroke-linecap="round" stroke-linejoin="round"/>
  </symbol>
  <symbol id="shield" viewBox="0 0 24 24">
    <path d="M12 22s8-4 8-11V5l-8-3-8 3v6c0 7 8 11 8 11Z" fill="none" stroke="currentColor" stroke-width="2" stroke-linejoin="round"/>
    <path d="m9 12 2 2 4-5" fill="none" stroke="currentColor" stroke-width="2" stroke-linecap="round" stroke-linejoin="round"/>
  </symbol>
  <symbol id="settings" viewBox="0 0 24 24">
    <circle cx="12" cy="12" r="3" fill="none" stroke="currentColor" stroke-width="2"/>
    <path d="M19.4 15a1.6 1.6 0 0 0 .3 1.8l.1.1a2 2 0 0 1-2.8 2.8l-.1-.1a1.6 1.6 0 0 0-1.8-.3 1.6 1.6 0 0 0-1 1.5V21a2 2 0 0 1-4 0v-.2a1.6 1.6 0 0 0-1-1.5 1.6 1.6 0 0 0-1.8.3l-.1.1a2 2 0 1 1-2.8-2.8l.1-.1a1.6 1.6 0 0 0 .3-1.8 1.6 1.6 0 0 0-1.5-1H3a2 2 0 0 1 0-4h.2a1.6 1.6 0 0 0 1.5-1 1.6 1.6 0 0 0-.3-1.8l-.1-.1a2 2 0 1 1 2.8-2.8l.1.1a1.6 1.6 0 0 0 1.8.3h.1a1.6 1.6 0 0 0 1-1.5V3a2 2 0 0 1 4 0v.2a1.6 1.6 0 0 0 1 1.5h.1a1.6 1.6 0 0 0 1.8-.3l.1-.1a2 2 0 1 1 2.8 2.8l-.1.1a1.6 1.6 0 0 0-.3 1.8v.1a1.6 1.6 0 0 0 1.5 1h.2a2 2 0 0 1 0 4H21a1.6 1.6 0 0 0-1.5 1Z" fill="none" stroke="currentColor" stroke-width="2" stroke-linecap="round" stroke-linejoin="round"/>
  </symbol>
  <symbol id="search" viewBox="0 0 24 24">
    <circle cx="11" cy="11" r="7" fill="none" stroke="currentColor" stroke-width="2"/>
    <path d="m20 20-4-4" fill="none" stroke="currentColor" stroke-width="2" stroke-linecap="round"/>
  </symbol>
  <symbol id="hash" viewBox="0 0 24 24">
    <path d="M9 3 7 21M17 3l-2 18M4 8h17M3 16h17" fill="none" stroke="currentColor" stroke-width="2" stroke-linecap="round"/>
  </symbol>
  <symbol id="globe" viewBox="0 0 24 24">
    <circle cx="12" cy="12" r="9" fill="none" stroke="currentColor" stroke-width="2"/>
    <path d="M3 12h18M12 3a14 14 0 0 1 0 18M12 3a14 14 0 0 0 0 18" fill="none" stroke="currentColor" stroke-width="2" stroke-linecap="round"/>
  </symbol>
  <symbol id="menu" viewBox="0 0 24 24">
    <path d="M4 6h16M4 12h16M4 18h16" fill="none" stroke="currentColor" stroke-width="2" stroke-linecap="round"/>
  </symbol>
  <symbol id="close" viewBox="0 0 24 24">
    <path d="M6 6l12 12M18 6 6 18" fill="none" stroke="currentColor" stroke-width="2" stroke-linecap="round"/>
  </symbol>
  <symbol id="check" viewBox="0 0 24 24">
    <path d="m5 13 4 4L19 7" fill="none" stroke="currentColor" stroke-width="2" stroke-linecap="round" stroke-linejoin="round"/>
  </symbol>
  <symbol id="check-circle" viewBox="0 0 24 24">
    <circle cx="12" cy="12" r="9" fill="none" stroke="currentColor" stroke-width="2"/>
    <path d="m8 12 3 3 5-6" fill="none" stroke="currentColor" stroke-width="2" stroke-linecap="round" stroke-linejoin="round"/>
  </symbol>
  <symbol id="confirm" viewBox="0 0 24 24">
    <circle cx="12" cy="12" r="9" fill="none" stroke="currentColor" stroke-width="2"/>
    <path d="m8 12 3 3 5-6" fill="none" stroke="currentColor" stroke-width="2" stroke-linecap="round" stroke-linejoin="round"/>
  </symbol>
  <symbol id="x-circle" viewBox="0 0 24 24">
    <circle cx="12" cy="12" r="9" fill="none" stroke="currentColor" stroke-width="2"/>
    <path d="M9 9l6 6M15 9l-6 6" fill="none" stroke="currentColor" stroke-width="2" stroke-linecap="round"/>
  </symbol>
  <symbol id="alert" viewBox="0 0 24 24">
    <path d="M12 3 2 21h20L12 3Z" fill="none" stroke="currentColor" stroke-width="2" stroke-linejoin="round"/>
    <path d="M12 9v5M12 18h.01" fill="none" stroke="currentColor" stroke-width="2" stroke-linecap="round"/>
  </symbol>
  <symbol id="flag" viewBox="0 0 24 24">
    <path d="M5 21V4M5 4h11l-1 4 1 4H5" fill="none" stroke="currentColor" stroke-width="2" stroke-linecap="round" stroke-linejoin="round"/>
  </symbol>
  <symbol id="info" viewBox="0 0 24 24">
    <circle cx="12" cy="12" r="9" fill="none" stroke="currentColor" stroke-width="2"/>
    <path d="M12 11v6M12 7h.01" fill="none" stroke="currentColor" stroke-width="2" stroke-linecap="round"/>
  </symbol>
  <symbol id="plus" viewBox="0 0 24 24">
    <path d="M12 5v14M5 12h14" fill="none" stroke="currentColor" stroke-width="2" stroke-linecap="round"/>
  </symbol>
  <symbol id="play" viewBox="0 0 24 24">
    <path d="M8 5v14l11-7-11-7Z" fill="currentColor"/>
  </symbol>
  <symbol id="minus" viewBox="0 0 24 24">
    <path d="M5 12h14" fill="none" stroke="currentColor" stroke-width="2" stroke-linecap="round"/>
  </symbol>
  <symbol id="thumb-up" viewBox="0 0 24 24">
    <path d="M7 22H4a2 2 0 0 1-2-2v-7a2 2 0 0 1 2-2h3v11Z" fill="none" stroke="currentColor" stroke-width="2" stroke-linejoin="round"/>
    <path d="M7 11 12 2a3 3 0 0 1 3 3v4h4a3 3 0 0 1 2.9 3.7l-1.6 6.5A3 3 0 0 1 17.4 22H7" fill="none" stroke="currentColor" stroke-width="2" stroke-linejoin="round"/>
  </symbol>
  <symbol id="thumb-up-filled" viewBox="0 0 24 24">
    <path d="M7 22H4a2 2 0 0 1-2-2v-7a2 2 0 0 1 2-2h3v11Z" fill="currentColor"/>
    <path d="M7 11 12 2a3 3 0 0 1 3 3v4h4a3 3 0 0 1 2.9 3.7l-1.6 6.5A3 3 0 0 1 17.4 22H7Z" fill="currentColor"/>
  </symbol>
  <symbol id="message-circle" viewBox="0 0 24 24">
    <path d="M21 11.5a8.5 8.5 0 0 1-12.7 7.4L3 21l2.1-5.1A8.5 8.5 0 1 1 21 11.5Z" fill="none" stroke="currentColor" stroke-width="2" stroke-linejoin="round"/>
    <path d="M8 11h8M8 15h5" fill="none" stroke="currentColor" stroke-width="2" stroke-linecap="round"/>
  </symbol>
  <symbol id="send" viewBox="0 0 24 24">
    <path d="M21 3 10 14" fill="none" stroke="currentColor" stroke-width="2" stroke-linecap="round" stroke-linejoin="round"/>
    <path d="m21 3-7 18-4-7-7-4 18-7Z" fill="none" stroke="currentColor" stroke-width="2" stroke-linejoin="round"/>
  </symbol>
  <symbol id="share" viewBox="0 0 24 24">
    <circle cx="18" cy="5" r="3" fill="none" stroke="currentColor" stroke-width="2"/>
    <circle cx="6" cy="12" r="3" fill="none" stroke="currentColor" stroke-width="2"/>
    <circle cx="18" cy="19" r="3" fill="none" stroke="currentColor" stroke-width="2"/>
    <path d="m8.7 10.7 6.6-4.4M8.7 13.3l6.6 4.4" fill="none" stroke="currentColor" stroke-width="2" stroke-linecap="round"/>
  </symbol>
  <symbol id="edit" viewBox="0 0 24 24">
    <path d="M4 20h4l11-11a2.8 2.8 0 0 0-4-4L4 16v4Z" fill="none" stroke="currentColor" stroke-width="2" stroke-linejoin="round"/>
    <path d="m13.5 6.5 4 4" fill="none" stroke="currentColor" stroke-width="2" stroke-linecap="round"/>
  </symbol>
  <symbol id="trash" viewBox="0 0 24 24">
    <path d="M4 7h16M10 11v6M14 11v6M6 7l1 14h10l1-14M9 7V4h6v3" fill="none" stroke="currentColor" stroke-width="2" stroke-linecap="round" stroke-linejoin="round"/>
  </symbol>
  <symbol id="delete" viewBox="0 0 24 24">
    <path d="M4 7h16M10 11v6M14 11v6M6 7l1 14h10l1-14M9 7V4h6v3" fill="none" stroke="currentColor" stroke-width="2" stroke-linecap="round" stroke-linejoin="round"/>
  </symbol>
  <symbol id="save" viewBox="0 0 24 24">
    <path d="M5 3h12l2 2v16H5V3Z" fill="none" stroke="currentColor" stroke-width="2" stroke-linejoin="round"/>
    <path d="M8 3v7h8V3M8 21v-7h8v7" fill="none" stroke="currentColor" stroke-width="2" stroke-linejoin="round"/>
  </symbol>
  <symbol id="copy" viewBox="0 0 24 24">
    <rect x="8" y="8" width="12" height="12" rx="2" fill="none" stroke="currentColor" stroke-width="2"/>
    <path d="M4 16V6a2 2 0 0 1 2-2h10" fill="none" stroke="currentColor" stroke-width="2" stroke-linecap="round"/>
  </symbol>
  <symbol id="upload" viewBox="0 0 24 24">
    <path d="M12 16V4M7 9l5-5 5 5M5 20h14" fill="none" stroke="currentColor" stroke-width="2" stroke-linecap="round" stroke-linejoin="round"/>
  </symbol>
  <symbol id="download" viewBox="0 0 24 24">
    <path d="M12 4v12M7 11l5 5 5-5M5 20h14" fill="none" stroke="currentColor" stroke-width="2" stroke-linecap="round" stroke-linejoin="round"/>
  </symbol>
  <symbol id="file" viewBox="0 0 24 24">
    <path d="M6 3h8l4 4v14H6V3Z" fill="none" stroke="currentColor" stroke-width="2" stroke-linejoin="round"/>
    <path d="M14 3v5h5" fill="none" stroke="currentColor" stroke-width="2" stroke-linejoin="round"/>
  </symbol>
  <symbol id="folder" viewBox="0 0 24 24">
    <path d="M3 6h7l2 3h9v9a3 3 0 0 1-3 3H6a3 3 0 0 1-3-3V6Z" fill="none" stroke="currentColor" stroke-width="2" stroke-linejoin="round"/>
  </symbol>
  <symbol id="image" viewBox="0 0 24 24">
    <rect x="3" y="5" width="18" height="14" rx="2" fill="none" stroke="currentColor" stroke-width="2"/>
    <circle cx="8" cy="10" r="1.5" fill="currentColor"/>
    <path d="m5 17 5-5 4 4 2-2 3 3" fill="none" stroke="currentColor" stroke-width="2" stroke-linecap="round" stroke-linejoin="round"/>
  </symbol>
  <symbol id="external-link" viewBox="0 0 24 24">
    <path d="M14 4h6v6M20 4l-9 9" fill="none" stroke="currentColor" stroke-width="2" stroke-linecap="round" stroke-linejoin="round"/>
    <path d="M20 14v5a1 1 0 0 1-1 1H5a1 1 0 0 1-1-1V5a1 1 0 0 1 1-1h5" fill="none" stroke="currentColor" stroke-width="2" stroke-linecap="round"/>
  </symbol>
  <symbol id="eye" viewBox="0 0 24 24">
    <path d="M2 12s3.5-6 10-6 10 6 10 6-3.5 6-10 6S2 12 2 12Z" fill="none" stroke="currentColor" stroke-width="2" stroke-linejoin="round"/>
    <circle cx="12" cy="12" r="3" fill="none" stroke="currentColor" stroke-width="2"/>
  </symbol>
  <symbol id="eye-off" viewBox="0 0 24 24">
    <path d="M3 3l18 18M10.6 10.6A3 3 0 0 0 13.4 13.4M7.2 7.2C3.8 9 2 12 2 12s3.5 6 10 6c1.8 0 3.3-.4 4.6-1M19 15c2-1.5 3-3 3-3s-3.5-6-10-6c-.8 0-1.5.1-2.2.2" fill="none" stroke="currentColor" stroke-width="2" stroke-linecap="round" stroke-linejoin="round"/>
  </symbol>
  <symbol id="calendar" viewBox="0 0 24 24">
    <rect x="4" y="5" width="16" height="16" rx="2" fill="none" stroke="currentColor" stroke-width="2"/>
    <path d="M8 3v4M16 3v4M4 10h16" fill="none" stroke="currentColor" stroke-width="2" stroke-linecap="round"/>
  </symbol>
  <symbol id="clock" viewBox="0 0 24 24">
    <circle cx="12" cy="12" r="9" fill="none" stroke="currentColor" stroke-width="2"/>
    <path d="M12 7v5l3 2" fill="none" stroke="currentColor" stroke-width="2" stroke-linecap="round" stroke-linejoin="round"/>
  </symbol>
  <symbol id="mail" viewBox="0 0 24 24">
    <rect x="3" y="5" width="18" height="14" rx="2" fill="none" stroke="currentColor" stroke-width="2"/>
    <path d="m4 7 8 6 8-6" fill="none" stroke="currentColor" stroke-width="2" stroke-linecap="round" stroke-linejoin="round"/>
  </symbol>
  <symbol id="phone" viewBox="0 0 24 24">
    <path d="M7 4h4l2 5-3 2a12 12 0 0 0 5 5l2-3 5 2v4a2 2 0 0 1-2 2A17 17 0 0 1 3 6a2 2 0 0 1 2-2h2Z" fill="none" stroke="currentColor" stroke-width="2" stroke-linecap="round" stroke-linejoin="round"/>
  </symbol>
  <symbol id="bell" viewBox="0 0 24 24">
    <path d="M18 9a6 6 0 1 0-12 0c0 7-3 7-3 9h18c0-2-3-2-3-9Z" fill="none" stroke="currentColor" stroke-width="2" stroke-linejoin="round"/>
    <path d="M10 21h4" fill="none" stroke="currentColor" stroke-width="2" stroke-linecap="round"/>
  </symbol>
  <symbol id="filter" viewBox="0 0 24 24">
    <path d="M4 5h16l-6 7v6l-4 2v-8L4 5Z" fill="none" stroke="currentColor" stroke-width="2" stroke-linejoin="round"/>
  </symbol>
  <symbol id="refresh" viewBox="0 0 24 24">
    <path d="M20 6v5h-5M4 18v-5h5" fill="none" stroke="currentColor" stroke-width="2" stroke-linecap="round" stroke-linejoin="round"/>
    <path d="M18 11a6 6 0 0 0-10.5-3.8L4 11M6 13a6 6 0 0 0 10.5 3.8L20 13" fill="none" stroke="currentColor" stroke-width="2" stroke-linecap="round" stroke-linejoin="round"/>
  </symbol>
  <symbol id="database" viewBox="0 0 24 24">
    <ellipse cx="12" cy="5" rx="8" ry="3" fill="none" stroke="currentColor" stroke-width="2"/>
    <path d="M4 5v6c0 1.7 3.6 3 8 3s8-1.3 8-3V5M4 11v6c0 1.7 3.6 3 8 3s8-1.3 8-3v-6" fill="none" stroke="currentColor" stroke-width="2"/>
  </symbol>
  <symbol id="link" viewBox="0 0 24 24">
    <path d="M10 13a5 5 0 0 0 7 0l2-2a5 5 0 1 0-7-7l-1 1M14 11a5 5 0 0 0-7 0l-2 2a5 5 0 1 0 7 7l1-1" fill="none" stroke="currentColor" stroke-width="2" stroke-linecap="round"/>
  </symbol>
  <symbol id="unlink" viewBox="0 0 24 24">
    <path d="M15 7h1a5 5 0 0 1 3.5 8.5l-2 2A5 5 0 0 1 10 17M9 17H8a5 5 0 0 1-3.5-8.5l2-2A5 5 0 0 1 14 7M3 3l18 18" fill="none" stroke="currentColor" stroke-width="2" stroke-linecap="round" stroke-linejoin="round"/>
  </symbol>
  <symbol id="bold" viewBox="0 0 24 24">
    <path d="M8 5h5a4 4 0 0 1 0 8H8V5ZM8 13h6a4 4 0 0 1 0 8H8v-8Z" fill="none" stroke="currentColor" stroke-width="2" stroke-linejoin="round"/>
  </symbol>
  <symbol id="italic" viewBox="0 0 24 24">
    <path d="M10 5h8M6 19h8M14 5l-4 14" fill="none" stroke="currentColor" stroke-width="2" stroke-linecap="round"/>
  </symbol>
  <symbol id="underline" viewBox="0 0 24 24">
    <path d="M7 5v6a5 5 0 0 0 10 0V5M5 21h14" fill="none" stroke="currentColor" stroke-width="2" stroke-linecap="round"/>
  </symbol>
  <symbol id="list-unordered" viewBox="0 0 24 24">
    <path d="M9 6h11M9 12h11M9 18h11" fill="none" stroke="currentColor" stroke-width="2" stroke-linecap="round"/>
    <circle cx="4" cy="6" r="1.4" fill="currentColor"/>
    <circle cx="4" cy="12" r="1.4" fill="currentColor"/>
    <circle cx="4" cy="18" r="1.4" fill="currentColor"/>
  </symbol>
  <symbol id="list-ordered" viewBox="0 0 24 24">
    <path d="M10 6h10M10 12h10M10 18h10M4 5h1v4M3.5 9h3M3.5 11.5H6l-2.5 3H6M4 17h2v4H4" fill="none" stroke="currentColor" stroke-width="2" stroke-linecap="round" stroke-linejoin="round"/>
  </symbol>
  <symbol id="undo" viewBox="0 0 24 24">
    <path d="M9 7 4 12l5 5M5 12h9a5 5 0 1 1 0 10h-2" fill="none" stroke="currentColor" stroke-width="2" stroke-linecap="round" stroke-linejoin="round"/>
  </symbol>
  <symbol id="redo" viewBox="0 0 24 24">
    <path d="m15 7 5 5-5 5M19 12h-9a5 5 0 1 0 0 10h2" fill="none" stroke="currentColor" stroke-width="2" stroke-linecap="round" stroke-linejoin="round"/>
  </symbol>
  <symbol id="remove-format" viewBox="0 0 24 24">
    <path d="M5 5h12M9 5l6 14M4 19h7M15 15l5 5M20 15l-5 5" fill="none" stroke="currentColor" stroke-width="2" stroke-linecap="round" stroke-linejoin="round"/>
  </symbol>
  <symbol id="code" viewBox="0 0 24 24">
    <path d="m8 8-4 4 4 4M16 8l4 4-4 4M14 4l-4 16" fill="none" stroke="currentColor" stroke-width="2" stroke-linecap="round" stroke-linejoin="round"/>
  </symbol>
  <symbol id="globe" viewBox="0 0 24 24">
    <circle cx="12" cy="12" r="9" fill="none" stroke="currentColor" stroke-width="2"/>
    <path d="M3 12h18M12 3c2.5 2.5 3.5 5.5 3.5 9S14.5 18.5 12 21M12 3C9.5 5.5 8.5 8.5 8.5 12S9.5 18.5 12 21" fill="none" stroke="currentColor" stroke-width="2" stroke-linecap="round"/>
  </symbol>
  <symbol id="arrow-left" viewBox="0 0 24 24">
    <path d="M19 12H5M12 5l-7 7 7 7" fill="none" stroke="currentColor" stroke-width="2" stroke-linecap="round" stroke-linejoin="round"/>
  </symbol>
  <symbol id="arrow-right" viewBox="0 0 24 24">
    <path d="M5 12h14M12 5l7 7-7 7" fill="none" stroke="currentColor" stroke-width="2" stroke-linecap="round" stroke-linejoin="round"/>
  </symbol>
  <symbol id="arrow-up" viewBox="0 0 24 24">
    <path d="M12 19V5M5 12l7-7 7 7" fill="none" stroke="currentColor" stroke-width="2" stroke-linecap="round" stroke-linejoin="round"/>
  </symbol>
  <symbol id="arrow-down" viewBox="0 0 24 24">
    <path d="M12 5v14M5 12l7 7 7-7" fill="none" stroke="currentColor" stroke-width="2" stroke-linecap="round" stroke-linejoin="round"/>
  </symbol>
  <symbol id="chevron-left" viewBox="0 0 24 24">
    <path d="m15 18-6-6 6-6" fill="none" stroke="currentColor" stroke-width="2" stroke-linecap="round" stroke-linejoin="round"/>
  </symbol>
  <symbol id="chevron-right" viewBox="0 0 24 24">
    <path d="m9 18 6-6-6-6" fill="none" stroke="currentColor" stroke-width="2" stroke-linecap="round" stroke-linejoin="round"/>
  </symbol>
  <symbol id="chevron-up" viewBox="0 0 24 24">
    <path d="m18 15-6-6-6 6" fill="none" stroke="currentColor" stroke-width="2" stroke-linecap="round" stroke-linejoin="round"/>
  </symbol>
  <symbol id="chevron-down" viewBox="0 0 24 24">
    <path d="m6 9 6 6 6-6" fill="none" stroke="currentColor" stroke-width="2" stroke-linecap="round" stroke-linejoin="round"/>
  </symbol>
  <symbol id="more" viewBox="0 0 24 24">
    <circle cx="5" cy="12" r="1.5" fill="currentColor"/>
    <circle cx="12" cy="12" r="1.5" fill="currentColor"/>
    <circle cx="19" cy="12" r="1.5" fill="currentColor"/>
  </symbol>
  <symbol id="sort" viewBox="0 0 24 24">
    <path d="M8 7h12M8 12h8M8 17h4M4 7h.01M4 12h.01M4 17h.01" fill="none" stroke="currentColor" stroke-width="2" stroke-linecap="round"/>
  </symbol>
  <symbol id="align-left" viewBox="0 0 24 24">
    <path d="M4 6h16M4 10h10M4 14h16M4 18h10" fill="none" stroke="currentColor" stroke-width="2" stroke-linecap="round"/>
  </symbol>
  <symbol id="align-center" viewBox="0 0 24 24">
    <path d="M4 6h16M7 10h10M4 14h16M7 18h10" fill="none" stroke="currentColor" stroke-width="2" stroke-linecap="round"/>
  </symbol>
  <symbol id="align-right" viewBox="0 0 24 24">
    <path d="M4 6h16M10 10h10M4 14h16M10 18h10" fill="none" stroke="currentColor" stroke-width="2" stroke-linecap="round"/>
  </symbol>
</svg>
